# xmcd
#
# Track frame offsets:
#	150
#	11956
#	24964
#	41030
#	63069
#	85169
#	98032
#	128995
#	150322
#	184741
#	214792
#
# Disc length: 3465
#
# Revision: 2
# Processed by: cddbd v1.5.1PL0 Copyright (c) Steve Scherf et al.
# Submitted via: CDex 1.50beta10
# Normalized: r1:DSETVAR1
#
DISCID=840d870b
DTITLE=Various Artist - Musical Plus Jazz (Jazz and Tzaz)
DYEAR=1999
DGENRE=Jazz
TTITLE0=Chico O'Farrill - Heat Wave
TTITLE1=Quincy Jones And His Orchestra - A Taste Of Honey
TTITLE2=Stan Getz - Walk On By
TTITLE3=Wes Montgomery - Chim Chim Cheree
TTITLE4=Oscar Peterson - Maria
TTITLE5=Sarah Vaughan - Charade
TTITLE6=Jimmy Smith - Days Of Wine And Roses
TTITLE7=Max Roach Sextet With Abbey Lincoln - I Concentrate On You
TTITLE8=Clifford Brown and Max Roach Quintet - I Get A Kick Out Of You
TTITLE9=Nina Simone - Pirate Jenny
TTITLE10=Gil Evans - The Barbara Song
EXTD=YEAR: 1999
EXTT0=
EXTT1=
EXTT2=
EXTT3=
EXTT4=
EXTT5=
EXTT6=
EXTT7=
EXTT8=
EXTT9=
EXTT10=
PLAYORDER=
